<svg width="22" height="22" viewBox="0 0 22 22" fill="none" xmlns="http://www.w3.org/2000/svg">
<path d="M10.9542 3.25418C13.475 3.25418 13.75 3.25418 14.7583 3.30002C15.675 3.34585 16.1792 3.48335 16.5 3.62085C16.9125 3.75835 17.2792 4.03335 17.6 4.30835C17.9208 4.62918 18.15 4.99585 18.2875 5.40835C18.425 5.72918 18.5625 6.23335 18.6083 7.15001C18.6542 8.15835 18.6542 8.43335 18.6542 10.9542C18.6542 13.475 18.6542 13.75 18.6083 14.7583C18.5625 15.675 18.425 16.1792 18.2875 16.5C17.9667 17.325 17.325 17.9667 16.5 18.2875C16.1792 18.425 15.675 18.5625 14.7583 18.6083C13.75 18.6542 13.475 18.6542 10.9542 18.6542C8.43335 18.6542 8.15835 18.6542 7.15002 18.6083C6.23335 18.5625 5.72918 18.425 5.40835 18.2875C4.99585 18.15 4.62918 17.875 4.30835 17.6C3.98752 17.2792 3.75835 16.9125 3.62085 16.5C3.48335 16.1792 3.34585 15.675 3.30002 14.7583C3.25418 13.75 3.25418 13.475 3.25418 10.9542C3.25418 8.43335 3.25418 8.15835 3.30002 7.15001C3.34585 6.23335 3.48335 5.72918 3.62085 5.40835C3.75835 4.99585 4.03335 4.62918 4.30835 4.30835C4.62918 3.98751 4.99585 3.75835 5.40835 3.62085C5.72918 3.48335 6.23335 3.34585 7.15002 3.30002C8.15835 3.25418 8.47918 3.25418 10.9542 3.25418ZM10.9542 1.55835C8.38752 1.55835 8.06668 1.55835 7.05835 1.60418C6.05002 1.65002 5.36252 1.78752 4.76668 2.06252C4.17085 2.29168 3.62085 2.65835 3.16252 3.11668C2.70418 3.57502 2.29168 4.17085 2.06252 4.76668C1.83335 5.36251 1.65002 6.05001 1.60418 7.05835C1.55835 8.06668 1.55835 8.38751 1.55835 10.9542C1.55835 13.5208 1.55835 13.8417 1.60418 14.85C1.65002 15.8583 1.78752 16.5458 2.06252 17.1417C2.29168 17.7375 2.65835 18.3333 3.16252 18.7917C3.62085 19.25 4.21668 19.6625 4.81252 19.8917C5.40835 20.1208 6.09585 20.3042 7.10418 20.35C8.11252 20.3958 8.43335 20.3958 11 20.3958C13.5667 20.3958 13.8875 20.3958 14.8958 20.35C15.9042 20.3042 16.5917 20.1667 17.1875 19.8917C18.4708 19.3875 19.4333 18.425 19.9375 17.1417C20.1667 16.5458 20.35 15.8583 20.3958 14.85C20.4417 13.8417 20.4417 13.5208 20.4417 10.9542C20.4417 8.38751 20.4417 8.06668 20.3958 7.05835C20.35 6.05001 20.2125 5.36251 19.9375 4.76668C19.7083 4.12501 19.3417 3.57502 18.8375 3.11668C18.3792 2.65835 17.7833 2.24585 17.1875 2.01668C16.5917 1.78752 15.9042 1.60418 14.8958 1.55835C13.8417 1.55835 13.5208 1.55835 10.9542 1.55835Z" fill="#2B2B39"/>
<path d="M10.9529 6.14166C8.29455 6.14166 6.14038 8.29583 6.14038 10.9542C6.14038 13.6125 8.29455 15.7667 10.9529 15.7667C13.6112 15.7667 15.7654 13.6125 15.7654 10.9542C15.8112 8.29583 13.6571 6.14166 10.9529 6.14166ZM10.9529 14.1167C9.21122 14.1167 7.83622 12.6958 7.83622 11C7.83622 9.25833 9.25705 7.88333 10.9529 7.88333C12.6946 7.88333 14.0696 9.30416 14.0696 11C14.1154 12.6958 12.6946 14.1167 10.9529 14.1167Z" fill="#2B2B39"/>
<path d="M15.9972 7.10417C16.63 7.10417 17.143 6.59116 17.143 5.95833C17.143 5.32551 16.63 4.8125 15.9972 4.8125C15.3643 4.8125 14.8513 5.32551 14.8513 5.95833C14.8513 6.59116 15.3643 7.10417 15.9972 7.10417Z" fill="#2B2B39"/>
</svg>