<svg width="22" height="22" viewBox="0 0 22 22" fill="none" xmlns="http://www.w3.org/2000/svg">
<path d="M4.5678 6.59724C5.6755 6.59724 6.57347 5.69927 6.57347 4.59157C6.57347 3.48387 5.6755 2.58591 4.5678 2.58591C3.4601 2.58591 2.56213 3.48387 2.56213 4.59157C2.56213 5.69927 3.4601 6.59724 4.5678 6.59724Z" fill="#2B2B39"/>
<path d="M8.4661 8.1171V19.2445H11.921V13.7418C11.921 12.2898 12.1942 10.8836 13.9945 10.8836C15.7701 10.8836 15.7921 12.5437 15.7921 13.8334V19.2454H19.2489V13.1432C19.2489 10.1457 18.6035 7.8421 15.1 7.8421C13.4179 7.8421 12.2904 8.76519 11.8294 9.63877H11.7826V8.1171H8.4661ZM2.83594 8.1171H6.29635V19.2445H2.83594V8.1171Z" fill="#2B2B39"/>
</svg>