<svg width="22" height="22" viewBox="0 0 22 22" fill="none" xmlns="http://www.w3.org/2000/svg">
<path d="M18.7627 5.13058C19.623 4.61491 20.2836 3.7984 20.5947 2.82552C19.7897 3.30293 18.898 3.64968 17.9489 3.83658C17.1889 3.02682 16.1061 2.52081 14.9078 2.52081C12.6067 2.52081 10.7412 4.38627 10.7412 6.68716C10.7412 7.01371 10.7781 7.33171 10.8491 7.63664C7.38636 7.46289 4.31635 5.80417 2.2614 3.28347C1.90276 3.89883 1.6973 4.61454 1.6973 5.37808C1.6973 6.82355 2.43292 8.09883 3.55087 8.84596C2.86784 8.82434 2.22545 8.63693 1.66365 8.32487C1.66335 8.34225 1.66335 8.35971 1.66335 8.37724C1.66335 10.3959 3.09953 12.0799 5.00554 12.4626C4.65589 12.5578 4.28782 12.6087 3.90779 12.6087C3.63934 12.6087 3.37831 12.5827 3.12397 12.534C3.65412 14.1893 5.1928 15.3939 7.01599 15.4275C5.59007 16.545 3.79355 17.211 1.84155 17.211C1.50528 17.211 1.17361 17.1914 0.847656 17.1529C2.69149 18.335 4.88156 19.0247 7.23446 19.0247C14.898 19.0247 19.0887 12.676 19.0887 7.1703C19.0887 6.98964 19.0847 6.80995 19.0767 6.6313C19.8907 6.04388 20.5971 5.31004 21.1557 4.47451C20.4085 4.80589 19.6055 5.02985 18.7627 5.13058Z" fill="#2B2B39"/>
</svg>